<?xml version="1.0" encoding="UTF-8"?>
<svg id="artwork"
    xmlns="http://www.w3.org/2000/svg" viewBox="0 0 740 215">
    <defs
        xmlns="http://www.w3.org/2000/svg">
        <style>
        .cls-1{fill:#fff;}
        path{fill:#fff;}
        </style>
    </defs>
    <path d="M191,113.99h7.53v9.02c-1.01,1.45-2.43,2.66-4.25,3.64-1.82,.94-3.84,1.41-6.06,1.41s-3.79-.52-5-1.57c-1.18-1.04-1.77-2.49-1.77-4.34,0-2.05,.81-4.49,2.43-5.94,1.62-1.48,3.99-2.22,7.13-2.22m121.35-20.26c2.19,0,4.06,.45,5.61,1.36,1.58,.91,2.85,2.19,3.79,3.84v23.73c-.94,1.58-2.21,2.79-3.79,3.64-1.55,.81-3.45,1.21-5.71,1.21-3.64,0-6.27-1.36-7.88-4.09-1.62-2.76-2.43-6.53-2.43-11.31v-1.06c0-5.15,.83-9.33,2.48-12.52,1.68-3.2,4.33-4.8,7.93-4.8m58.45-.1c3.84,0,6.65,1.53,8.44,4.59,1.79,3.06,2.68,7.02,2.68,11.87v1.06c0,4.95-.89,8.94-2.68,11.97-1.75,3.03-4.53,4.54-8.34,4.54s-6.74-1.5-8.49-4.49c-1.75-3.03-2.63-7.04-2.63-12.02v-1.06c0-4.85,.88-8.81,2.63-11.87,1.75-3.06,4.55-4.59,8.39-4.59m0-11.36c-8.05,0-14.37,2.61-18.95,7.83-4.55,5.18-6.82,11.85-6.82,19.99v1.06c0,8.21,2.27,14.91,6.82,20.1,4.58,5.15,10.93,7.72,19.05,7.72s14.3-2.58,18.85-7.72c4.58-5.18,6.87-11.88,6.87-20.1v-1.06c0-8.18-2.29-14.86-6.87-20.04-4.55-5.18-10.87-7.78-18.95-7.78m-111.47,0c-3.3,0-6.29,.78-8.94,2.32-2.66,1.55-4.9,3.72-6.72,6.51l-.66-7.83h-21.58v8.89l7.83,1.52v33.88l-7.07,1.52v8.84h27.79v-8.84l-5.96-1.52v-29.29c1.04-1.45,2.34-2.56,3.89-3.33,1.55-.81,3.3-1.21,5.26-1.21,3,0,5.24,.77,6.72,2.32,1.48,1.51,2.22,4.11,2.22,7.78v23.73l-6.32,1.52v8.84h28.2v-8.84l-7.07-1.52v-23.78c0-7.4-1.55-12.84-4.65-16.31-3.1-3.47-7.41-5.2-12.94-5.2m-68.83,0c-3.57,0-6.91,.5-10.02,1.44-1.48,.39-3.03,.89-4.54,1.56-5.8,2.57-7.84,4.72-7.84,4.72l6.99,9.23s2.23-2.4,8.55-5.1c1.85-.78,4.14-1.1,5.89-1.1,2.97,0,5.21,.72,6.72,2.17,1.52,1.45,2.27,3.48,2.27,6.11v4.66h-7.53c-7.95,0-13.98,2.09-18.09,4.88-4.11,2.79-6.17,6.75-6.17,11.86s1.57,8.99,4.7,11.91c3.17,2.9,7.43,4.34,12.79,4.34,3.23,0,6.1-.62,8.59-1.87,2.53-1.25,4.66-2.88,6.42-4.9,.17,.98,.41,1.95,.71,2.93,.3,.94,.66,1.87,1.06,2.78h17.03v-8.84l-4.5-.61c-.1-.67-.17-1.38-.2-2.12v-24.94c0-6.13-2.12-10.84-6.37-14.14-4.21-3.33-9.7-5-16.47-5m-30.36,0c-2.66,0-5,.79-7.02,2.37-2.02,1.58-3.67,3.79-4.95,6.61l-.66-7.98h-21.58v8.89l7.83,1.52v33.88l-7.07,1.52v8.84h28.91v-8.84l-7.07-1.52v-26.56c.74-1.55,1.82-2.75,3.23-3.59,1.41-.84,3.2-1.26,5.36-1.26l6.06,.15,1.57-13.43c-.57-.17-1.3-.3-2.17-.4-.84-.13-1.65-.2-2.43-.2m163.73-.18l-1.23,8.06c-1.65-2.52-3.64-4.46-5.96-5.81-2.32-1.38-5.02-2.07-8.08-2.07-6.77,0-12.04,2.64-15.82,7.93-3.74,5.29-5.61,12.24-5.61,20.85v1.06c0,8.05,1.87,14.54,5.61,19.49,3.77,4.92,9.01,7.37,15.72,7.37,2.83,0,5.34-.54,7.53-1.62,2.19-1.08,4.09-2.64,5.71-4.7v3.58c0,3.91-.89,6.95-2.68,9.14-1.79,2.19-4.48,3.28-8.09,3.28-2.63,0-5.12-.3-7.48-.91-2.36-.57-4.72-1.36-7.07-2.37l-2.73,10.35c2.63,1.31,5.49,2.34,8.59,3.08,3.1,.77,6.03,1.16,8.79,1.16,7.92,0,14.14-2.15,18.65-6.46,4.55-4.27,6.82-10.01,6.82-17.22v-9.4s.01-34.4,.01-34.4l7.84-1.52v-8.89h-20.52Zm-234.77-.78h.3l6.74,21.08h-13.8l6.75-21.08h0Zm-7.33-16.91l-22.39,63.91-5.26,.76v8.84h25.07v-8.84l-5.1-.91,4.78-14.92h20.67l4.88,14.92-5.1,.91v8.84h25.07v-8.84l-5.26-.76-22.24-63.91h-15.11Z"/>
    <g>
        <path d="M437.23,138.94c-7.31,0-13.54-1.52-18.7-4.55-5.15-3.03-9.1-7.24-11.85-12.63s-4.12-11.64-4.12-18.75v-2.53c0-7.34,1.37-13.81,4.09-19.41,2.73-5.59,6.6-9.96,11.6-13.11s10.92-4.73,17.76-4.73c5.29,0,10.26,.72,14.91,2.17,4.65,1.45,8.69,3.62,12.13,6.52v16.32h-10.92l-2.07-9.85c-1.31-1.14-3.08-2.06-5.31-2.75s-4.77-1.04-7.63-1.04c-4.11,0-7.66,1.09-10.64,3.26-2.98,2.17-5.26,5.19-6.85,9.05-1.58,3.86-2.38,8.35-2.38,13.47v2.63c0,4.99,.78,9.32,2.35,13.01s3.87,6.54,6.9,8.57,6.75,3.03,11.17,3.03c2.59,0,4.98-.24,7.15-.73,2.17-.49,3.97-1.09,5.38-1.79v-12.48l-10.51-.81v-10.36h25.32v29.77c-3.27,2.32-7.2,4.19-11.8,5.61s-9.93,2.12-16,2.12Z"/>
        <path d="M564.08,158.9v-8.89l7.13-1.52v-54.88l-7.88-1.52v-8.89h21.43l.71,6.37c1.62-2.36,3.57-4.18,5.86-5.46s5.02-1.92,8.19-1.92c4.41,0,8.19,1.21,11.32,3.61,3.13,2.41,5.53,5.77,7.2,10.08,1.67,4.31,2.5,9.35,2.5,15.11v1.06c0,5.39-.83,10.1-2.5,14.12-1.67,4.03-4.08,7.16-7.23,9.4-3.15,2.24-6.95,3.36-11.4,3.36-2.93,0-5.52-.53-7.76-1.59-2.24-1.06-4.15-2.62-5.74-4.67v15.82l7.13,1.52v8.89h-28.96Zm30.93-31.28c3.77,0,6.51-1.4,8.21-4.2,1.7-2.8,2.55-6.59,2.55-11.37v-1.06c0-3.47-.39-6.49-1.16-9.07-.78-2.58-1.96-4.6-3.56-6.06-1.6-1.47-3.65-2.2-6.14-2.2-2.02,0-3.8,.45-5.33,1.36-1.53,.91-2.75,2.21-3.66,3.89v23.95c.91,1.55,2.13,2.73,3.66,3.54s3.34,1.21,5.43,1.21Z"/>
        <path d="M624.02,137.87v-8.84l7.13-1.52v-58.07l-7.88-1.52v-8.89h22.59v31.13c1.72-2.53,3.85-4.49,6.39-5.89,2.54-1.4,5.43-2.1,8.67-2.1,5.49,0,9.85,1.83,13.06,5.48,3.22,3.66,4.83,9.31,4.83,16.96v22.89l7.08,1.52v8.84h-28.2v-8.84l6.37-1.52v-22.99c0-3.94-.74-6.74-2.22-8.39-1.48-1.65-3.66-2.48-6.52-2.48-1.99,0-3.8,.41-5.43,1.24-1.63,.83-2.97,2.03-4.02,3.61v29.01l6.37,1.52v8.84h-28.2Z"/>
    </g>
    <path d="M558.18,128.46c-.1-.67-.17-1.38-.2-2.12v-24.94c0-6.13-2.12-10.84-6.37-14.14-4.21-3.33-9.7-5-16.47-5h0c-3.57,0-6.91,.51-10.02,1.45-1.48,.39-3.03,.89-4.54,1.56-5.8,2.57-7.84,4.72-7.84,4.72l6.99,9.23s2.23-2.4,8.55-5.1c1.85-.78,4.14-1.1,5.89-1.1,2.97,0,5.21,.72,6.72,2.17,1.52,1.45,2.27,3.48,2.27,6.11v4.66h-7.53c-7.95,0-13.98,2.09-18.09,4.88-4.11,2.79-6.17,6.75-6.17,11.86s1.57,8.99,4.7,11.91c3.17,2.9,7.43,4.34,12.79,4.34,3.23,0,6.1-.62,8.59-1.87,2.53-1.25,4.66-2.88,6.42-4.9,.17,.98,.41,1.95,.71,2.93,.3,.94,.66,1.87,1.06,2.78h17.03v-8.84l-4.5-.61Zm-15.01-5.45c-1.01,1.45-2.43,2.66-4.25,3.64-1.82,.94-3.84,1.41-6.06,1.41s-3.79-.52-5-1.57c-1.18-1.04-1.77-2.49-1.77-4.34,0-2.05,.81-4.49,2.43-5.94,1.62-1.48,3.99-2.22,7.13-2.22h0s7.53,0,7.53,0v9.02Z"/>
    <path d="M504.77,82.25c-2.66,0-5,.79-7.02,2.37-2.02,1.58-3.67,3.79-4.95,6.61l-.66-7.98h-21.58v8.89l7.83,1.52v33.88l-7.07,1.52v8.84h28.91v-8.84l-7.07-1.52v-26.56c.74-1.55,1.82-2.75,3.23-3.59,1.41-.84,3.2-1.26,5.36-1.26l6.06,.15,1.57-13.43c-.57-.17-1.3-.3-2.17-.4-.84-.13-1.65-.2-2.43-.2"/>
</svg>