<svg width="353" height="79" viewBox="0 0 353 79" fill="none" xmlns="http://www.w3.org/2000/svg">
<g clip-path="url(#clip0_53_91)">
<mask id="mask0_53_91" style="mask-type:luminance" maskUnits="userSpaceOnUse" x="0" y="0" width="353" height="74">
<path d="M0.5 0.5H352.5V73.5H0.5V0.5Z" fill="white"/>
</mask>
<g mask="url(#mask0_53_91)">
<path d="M148.301 37.1599H146.763L146.691 37.1399C145.642 36.8603 144.117 36.6905 142.813 36.6905C138.279 36.6905 134.646 37.9606 132.15 40.3734C129.656 42.7818 128.221 46.4021 128.221 51.2613V60.9753H119.056V28.9666H127.989V34.9396C130.983 30.7984 136.202 28.0279 143.224 28.0279C144.843 28.0279 146.703 28.2648 147.866 28.5754L148.301 28.6919V37.1626V37.1599ZM222.725 28.032C227.782 28.032 231.678 29.3448 234.303 32.0011C236.929 34.6576 238.195 38.5599 238.195 43.5398V60.9797H229.088V44.3581C229.088 41.5161 228.409 39.546 227.112 38.2735C225.813 36.9969 223.783 36.3125 220.852 36.2813C217.15 36.2542 213.967 37.3857 211.712 39.5416C209.461 41.6951 208.077 44.9241 208.077 49.2108V60.973H198.97L199.024 28.9622H207.898V34.2753C210.903 30.6662 216.119 28.0276 222.725 28.0276V28.032ZM262.72 28.032C268.893 28.032 273.729 30.0913 276.437 32.6787V28.9669H285.486V56.0625C285.486 61.5655 283.838 65.9708 280.141 68.9809C276.466 71.9706 270.865 73.5001 263.131 73.5001C256.638 73.5001 250.184 72.1428 245.415 69.75L245.674 69.229H245.091V61.5611H246.703L246.837 61.635C251.407 64.1573 257.031 65.5393 263.073 65.5393C268 65.5393 271.329 64.7657 273.421 63.2115C275.47 61.6909 276.437 59.3408 276.437 55.8856V55.5907C273.606 58.7055 268.75 60.5706 262.606 60.5706C256.63 60.5706 251.798 58.8398 248.454 55.9351C245.105 53.0257 243.283 48.9715 243.283 44.4187C243.283 39.8657 245.149 35.7491 248.532 32.7838C251.91 29.8208 256.768 28.0299 262.72 28.0299V28.032ZM264.357 36.0488C260.644 36.0488 257.728 36.9074 255.757 38.3562C253.803 39.7921 252.743 41.8269 252.743 44.3001C252.743 46.7733 253.781 48.8149 255.689 50.2484C257.616 51.6928 260.472 52.5515 264.124 52.5515C267.768 52.5515 270.871 51.6237 273.044 50.123C275.212 48.6271 276.437 46.5831 276.437 44.3001C276.437 42.0171 275.285 39.9596 273.196 38.4728C271.099 36.9789 268.058 36.0508 264.354 36.0508L264.357 36.0488ZM310.465 28.032C323.07 28.032 332.357 35.1878 332.357 44.9442C332.357 54.6961 323.14 61.9749 310.465 61.9749C297.793 61.9749 288.636 54.7565 288.636 44.9442C288.636 35.1318 297.858 28.032 310.465 28.032ZM310.465 35.9905C306.441 35.9905 303.337 36.9789 301.258 38.5755C299.187 40.1633 298.092 42.3771 298.092 44.9442C298.092 47.5112 299.216 49.7519 301.304 51.3708C303.402 52.9989 306.505 54.0118 310.465 54.0118C314.431 54.0118 317.549 53.0233 319.661 51.4111C321.765 49.8078 322.9 47.5648 322.9 44.9442C322.9 42.3232 321.791 40.1653 319.708 38.5779C317.611 36.9789 314.493 35.9928 310.465 35.9905ZM192.04 29.0808H182.991V32.1041C180.053 29.8164 175.469 28.1459 169.859 28.1459C163.791 28.1459 158.788 29.975 155.285 33.0455C151.777 36.1223 149.837 40.3934 149.837 45.1208C149.837 49.8481 151.728 54.0589 155.211 57.0798C158.683 60.0943 163.657 61.8563 169.745 61.8563C175.362 61.8563 180.006 60.3224 183.049 57.6323L183.244 61.1587L184.411 61.0939H193.21V29.0808H192.04ZM171.261 53.8372C163.786 53.8372 159.294 50.3264 159.294 44.9998C159.294 39.6731 163.905 36.1624 171.493 36.1624C179.082 36.1624 184.161 39.966 184.161 44.9998C184.161 50.0333 178.736 53.8372 171.263 53.8372H171.261Z" fill="white"/>
<path d="M352.5 56.0803C352.495 56.0618 352.483 56.0458 352.467 56.0352C352.451 56.0245 352.431 56.02 352.412 56.0223C347.502 56.5098 342.841 54.2624 340.154 50.3916C339.415 49.3318 338.837 48.1674 338.441 46.9368C338.435 46.9182 338.423 46.9022 338.407 46.8915C338.391 46.8808 338.372 46.8762 338.353 46.8785C338.309 46.8829 338.288 46.9256 338.294 46.9636C338.423 48.274 338.35 49.5709 338.097 50.8164C337.168 55.4342 333.782 59.3585 329.089 60.8568C329.07 60.8626 329.053 60.8749 329.042 60.8916C329.031 60.9084 329.026 60.9285 329.027 60.9486C329.033 60.991 329.074 61.0111 329.121 61.0066C334.029 60.5192 338.69 62.7666 341.377 66.6373C342.115 67.6978 342.692 68.862 343.09 70.0922C343.102 70.1302 343.137 70.1549 343.178 70.1505C343.216 70.1393 343.242 70.1034 343.24 70.0654C343.108 68.7549 343.184 67.458 343.433 66.2126C344.363 61.5948 347.748 57.6725 352.441 56.1722C352.48 56.161 352.506 56.1251 352.503 56.0803H352.5Z" fill="#58DF20"/>
<path d="M89.1504 18.5908C92.7561 18.6488 96.2256 20.8359 98.083 24.8724C99.8535 28.7228 103.885 37.4887 107.473 45.2953C109.266 49.1973 110.949 52.8602 112.184 55.5459C112.8 56.8876 113.307 57.9876 113.658 58.7502C113.834 59.1326 113.97 59.4299 114.064 59.6312C114.111 59.7319 114.147 59.8102 114.171 59.8617C114.182 59.8885 114.193 59.9065 114.198 59.9197C114.2 59.9265 114.203 59.9309 114.205 59.9353V59.94L114.258 60.0584V61.5834H105.218L105.064 61.237L100.834 51.7152H76.7817L72.4973 61.2414L72.3409 61.5858H63.5735V60.0675L63.6228 59.9556V59.9512C63.6228 59.9489 63.6272 59.9444 63.6292 59.9377C63.6339 59.9241 63.6427 59.9065 63.6539 59.8794C63.6762 59.8302 63.7096 59.7566 63.7521 59.658C63.8369 59.4635 63.9622 59.1773 64.125 58.8106C64.4488 58.075 64.9175 57.0171 65.4913 55.7181C66.9671 52.3848 68.4525 49.0558 69.9476 45.7312C73.3949 38.0745 77.4179 29.293 79.7062 24.8585C81.8989 20.608 85.5356 18.5349 89.1437 18.5929L89.1504 18.5908ZM88.9718 26.5717C88.8377 26.5628 88.5922 26.6276 88.2015 27.0544C87.8198 27.4753 87.3798 28.1571 86.873 29.1567C86.029 31.0285 84.2588 34.9684 82.6959 38.4412C81.9121 40.1832 81.182 41.8113 80.6464 43.0008C80.4498 43.437 80.2803 43.8147 80.1418 44.119H97.4825C97.3485 43.8126 97.1789 43.4303 96.9845 42.9896C96.46 41.7957 95.741 40.1676 94.9707 38.4233C93.4281 34.9328 91.6798 30.9837 90.8403 29.1431C90.4273 28.233 90.0545 27.5689 89.7107 27.1327C89.3581 26.6856 89.1123 26.5805 88.9694 26.5717H88.9718Z" fill="white"/>
<path d="M51.2874 7.10134C50.4323 5.2834 49.2311 3.76041 47.8091 2.69838C47.2063 2.25331 46.5812 1.86859 45.9382 1.55775C45.3016 1.26046 44.632 1.01909 43.8884 0.822162C42.1762 0.379452 40.2381 0.395053 38.2845 0.869258C35.6659 1.50418 33.1518 2.91502 31.3883 4.74002C28.8609 7.34065 26.0164 9.77143 23.2659 12.1239C22.1609 13.0676 21.0198 14.0446 19.9148 15.0174C15.7709 18.6692 11.4868 22.444 7.93685 26.8961C0.261194 36.538 -1.63257 48.6295 3.00034 58.4551C3.63323 59.7923 4.39285 61.0654 5.26869 62.2567C7.56402 65.3762 10.8928 67.3752 13.8443 68.9206C16.8583 70.4992 20.3501 71.3802 23.5384 71.3802C23.7795 71.3802 24.0183 71.3758 24.257 71.3646C25.7642 71.2954 27.2399 71.0873 28.6377 70.7453C39.1845 68.1938 47.4004 59.1306 50.0795 47.0909L50.2314 46.4113H50.2179C51.312 41.1538 51.5576 35.722 51.7943 30.4605L51.8007 30.3018C51.8679 28.808 51.9125 27.2829 51.955 25.807C52.0597 22.2112 52.1671 18.4923 52.6045 14.9079C52.9128 12.3609 52.4326 9.51417 51.2851 7.10134H51.2874ZM41.7385 49.1929C39.8407 57.8066 33.9444 65.4678 24.9962 67.5765C23.8761 67.8429 22.7328 67.9995 21.5824 68.044C17.5638 68.1982 13.6566 66.5545 10.3947 64.361C9.00399 63.4217 7.74706 62.279 6.74445 60.9282C6.06362 60.0025 5.45847 59.0076 4.96509 57.97C0.995701 49.6624 3.24821 40.2616 8.76082 33.3743C11.5358 29.9059 14.9003 26.9609 18.2449 24.0291C21.3032 21.3481 24.565 18.7855 27.4074 15.8831C28.7626 14.4967 30.6825 13.4323 32.6986 12.9513C34.123 12.6181 35.5988 12.5758 36.9607 12.9313C37.4969 13.0758 38.0203 13.2642 38.5256 13.4947C39.023 13.7421 39.4975 14.0333 39.9436 14.3648C41.0688 15.2079 41.9662 16.3841 42.6003 17.7078C43.4912 19.5817 43.8661 21.7531 43.6361 23.6762C43.1562 27.7147 43.2119 31.8651 43.0444 35.9393C42.8638 40.3826 42.6763 44.8594 41.723 49.1976H41.7362L41.7385 49.1932V49.1929Z" fill="#007339"/>
<path d="M43.6361 23.6714C43.8661 21.7504 43.4912 19.5769 42.6004 17.703C41.9685 16.379 41.0709 15.2028 39.9436 14.3598C39.4975 14.0284 39.023 13.7373 38.5257 13.4899C38.0204 13.2591 37.497 13.0706 36.9607 12.9266C35.5988 12.571 34.123 12.6134 32.6986 12.9466C30.6825 13.4272 28.7627 14.4919 27.4074 15.8783C24.563 18.783 21.3032 21.3457 18.2449 24.0246C14.9003 26.9564 11.5358 29.9014 8.76054 33.3695C3.24852 40.2571 0.995718 49.6579 4.9651 57.9652C5.45849 59.0028 6.06364 59.998 6.74446 60.9238C7.74473 62.2746 9.00401 63.4172 10.395 64.3562C13.6545 66.5501 17.5641 68.1937 21.5827 68.0392C22.7331 67.9961 23.8764 67.8396 24.9963 67.5721C33.9444 65.4609 39.8386 57.8021 41.7385 49.1884H41.725C42.6784 44.8502 42.8661 40.3734 43.0468 35.9301C43.2143 31.8556 43.1586 27.7055 43.6385 23.667L43.6361 23.6714Z" fill="#B9FF38"/>
<path d="M29.5507 34.0136C27.1081 32.4306 23.824 32.3411 20.3031 33.7611C17.0101 35.0892 14.0363 37.5356 12.1408 40.4718C8.28493 46.4492 9.33887 54.023 14.4895 57.3571C15.7123 58.148 17.0948 58.6567 18.5372 58.8466C20.0262 59.0456 21.5938 58.9158 23.1631 58.453C26.2372 57.5449 28.9567 55.4541 30.8188 52.5695C33.1763 48.9224 34.1408 43.9534 33.2746 39.9128C32.7076 37.263 31.4169 35.2258 29.5484 34.016L29.5507 34.0136Z" fill="black"/>
</g>
</g>
<path d="M324.351 78.5V67.7H331.416C334.948 67.7 336.75 68.99 336.75 71.315C336.75 73.685 334.948 74.93 331.416 74.93H327.912V78.5H324.351ZM327.912 72.35H331.387C332.488 72.35 333.032 72.005 333.032 71.36C333.032 70.67 332.488 70.355 331.387 70.355H327.912V72.35Z" fill="#58DF20"/>
<path d="M305.595 78.5V67.7H310.429L313.732 72.695H314.333L317.565 67.7H322.356V78.5H318.881L318.967 71.66H318.666L315.377 76.4H312.503L309.142 71.66H308.813L308.899 78.5H305.595Z" fill="#58DF20"/>
<path d="M289.72 78.5V78.2L294.253 67.7H299.974L304.621 78.2V78.5H300.775L299.916 76.325H294.125L293.252 78.5H289.72ZM295.183 73.73H298.887L297.571 70.415H296.513L295.183 73.73Z" fill="#58DF20"/>
<defs>
<clipPath id="clip0_53_91">
<rect width="352" height="73" fill="white" transform="translate(0.5 0.5)"/>
</clipPath>
</defs>
</svg>
