<svg xmlns="http://www.w3.org/2000/svg" xml:space="preserve" style="fill-rule:evenodd;clip-rule:evenodd;stroke-linejoin:round;stroke-miterlimit:2" viewBox="0 0 578 578"><path d="M389.4 51.4c-6.6-13.9-15.8-25.5-26.7-33.7-4.6-3.4-9.4-6.3-14.3-8.7-4.9-2.3-10-4.1-15.7-5.6-13.1-3.4-28-3.3-42.9.4-20.1 4.9-39.3 15.6-52.9 29.6-19.4 19.9-41.2 38.5-62.2 56.5-8.5 7.2-17.2 14.7-25.7 22.1-31.8 27.9-64.6 56.8-91.8 90.8C-1.6 276.5-16.1 368.9 19.4 444c4.9 10.3 10.8 20.1 17.4 29.1 17.6 23.9 43.1 39.1 65.7 51 23.1 12.1 49.9 18.8 74.3 18.8s3.7 0 5.5-.1c11.5-.5 22.9-2.1 33.6-4.7 80.8-19.5 143.8-88.8 164.3-180.9l1.2-5.2h-.1c8.4-40.2 10.3-81.7 12.1-122v-1.2c.6-11.4.9-23.1 1.2-34.4.8-27.5 1.6-55.9 5-83.3 2.4-19.5-1.3-41.2-10.1-59.7z" style="fill:#127920;fill-rule:nonzero" transform="translate(93.4 32.15)scale(.9262)"/><path d="M330.8 178.1c1.8-14.7-1.1-31.3-7.9-45.6-4.8-10.1-11.7-19.1-20.4-25.6-3.5-2.5-7.1-4.8-10.9-6.7a71 71 0 0 0-12-4.3c-10.4-2.7-21.7-2.4-32.7.2-15.4 3.7-30.2 11.8-40.6 22.4-21.8 22.2-46.8 41.8-70.2 62.3-25.6 22.4-51.4 44.9-72.7 71.5C21.2 305 3.9 376.9 34.3 440.4c3.8 7.9 8.4 15.5 13.6 22.6 7.7 10.3 17.3 19.1 28 26.2 25 16.8 54.9 29.3 85.7 28.2 8.8-.3 17.6-1.5 26.2-3.6 68.6-16.1 113.7-74.7 128.3-140.6h-.1c7.3-33.2 8.7-67.4 10.1-101.4 1.3-31.2.9-62.9 4.5-93.8z" style="fill:#c7fe62;fill-rule:nonzero" transform="translate(93.4 32.15)scale(.9262)"/><path d="M222.8 257.1c-18.7-12.1-43.9-12.8-70.9-1.9-25.2 10.2-48 28.9-62.6 51.3-29.5 45.7-21.5 103.6 18 129.1 9.4 6.1 20 9.9 31 11.4 11.4 1.5 23.4.5 35.5-3 23.6-6.9 44.4-22.9 58.7-45 18.1-27.9 25.5-65.9 18.8-96.8-4.3-20.3-14.2-35.8-28.6-45.1z" style="fill:#010101;fill-rule:nonzero" transform="rotate(-8.18 426.1 -370.9)scale(.9262)"/></svg>