<svg viewBox="0 0 16 16" xmlns="http://www.w3.org/2000/svg">
  <path fill="currentColor" d="M 15,8.77 V 7.17 L 13.06,6.53 12.61,5.44 13.49,3.6 12.36,2.47 10.55,3.38 9.46,2.93 8.77,1.01 H 7.17 L 6.54,2.95 5.43,3.4 3.59,2.52 2.46,3.65 3.37,5.46 2.92,6.55 1,7.23 v 1.59 l 1.94,0.64 0.45,1.09 -0.88,1.84 1.13,1.13 1.81,-0.91 1.09,0.45 0.69,1.92 h 1.59 l 0.63,-1.94 1.11,-0.45 1.84,0.88 1.13,-1.13 L 12.61,10.53 13.08,9.44 15,8.75 Z M 8,11 C 6.34,11 5,9.66 5,8 5,6.34 6.34,5 8,5 c 1.66,0 3,1.34 3,3 0,1.66 -1.34,3 -3,3 z"></path>
</svg>
