<svg viewBox="0 0 460 420"
     xmlns="http://www.w3.org/2000/svg"
     style="display:block;width:100%;max-width:460px;margin:0 auto">
  <style>
    .asr .axlbl { font-family: sans-serif; font-size: 14px; fill: #374151; }
    .asr .qtext { font-family: sans-serif; font-size: 12px; font-weight: bold; fill: #15803d; }
    .asr .dtext { font-family: sans-serif; font-size: 12px; font-weight: bold; }
    .asr .ang   { font-family: sans-serif; font-size: 15px; font-style: italic; }
  </style>

  <g class="asr">
    <rect width="460" height="420" fill="#f3f4f6" rx="6"/>
    <path d="M 70 340 L 354.0 340.0" stroke="#d1d5db" stroke-width="9" stroke-linecap="round" fill="none"/>
    <polygon points="370.0,340.0 352.0,348.5 352.0,331.5" fill="#d1d5db"/>
    <path d="M 70 340 L 70.0 56.0" stroke="#d1d5db" stroke-width="9" stroke-linecap="round" fill="none"/>
    <polygon points="70.0,40.0 78.5,58.0 61.5,58.0" fill="#d1d5db"/>
    <path d="M 70 340 L 288.2 140.8" stroke="#86efac" stroke-width="9" stroke-linecap="round" fill="none"/>
    <polygon points="300.0,130.0 292.4,148.4 281.0,135.9" fill="#86efac"/>
    <path d="M 70 340 L 185.2 99.9" stroke="#2563eb" stroke-width="3" stroke-linecap="round" fill="none"/>
    <polygon points="190.0,90.0 188.9,103.9 179.9,99.6" fill="#2563eb"/>
    <path d="M 70 340 L 319.4 268.0" stroke="#dc2626" stroke-width="3" stroke-linecap="round" fill="none"/>
    <polygon points="330.0,265.0 318.9,273.4 316.1,263.8" fill="#dc2626"/>
    <path d="M 115.4 245.3 A 105 105 0 0 1 147.5 269.2" stroke="#2563eb" stroke-width="1.5" fill="none"/>
    <path d="M 180.8 238.9 A 150 150 0 0 1 214.1 298.4" stroke="#dc2626" stroke-width="1.5" fill="none"/>
    <text x="142" y="244" text-anchor="middle" class="ang" fill="#2563eb">&#945;</text>
    <text x="218" y="257" text-anchor="middle" class="ang" fill="#dc2626">&#952;</text>
    <text x="196" y="74" text-anchor="middle" class="dtext" fill="#2563eb">document 1</text>
    <text x="326" y="112" text-anchor="middle" class="qtext">query</text>
    <text x="330" y="292" text-anchor="middle" class="dtext" fill="#dc2626">document 2</text>
  </g>
</svg>
