<svg viewBox="0 0 820 480"
     xmlns="http://www.w3.org/2000/svg"
     style="display:block;width:100%;max-width:820px;margin:0 auto">
  <style>
    .agkg text { font-family: sans-serif; }
    .agkg .vtx { fill: #b9f5a0; stroke: #4ade80; stroke-width: 1.5; }
    .agkg .card:hover .vtx { fill: #ffffff; stroke: #22c55e; }
    .agkg .vtitle { font-size: 16px; font-weight: bold; fill: #0b2e1e; }
    .agkg .vsub { font-size: 11px; font-style: italic; fill: #14532d; }
    .agkg .elabel { font-size: 11px; font-weight: bold; fill: #0b2e1e; }
    .agkg .ebadge { fill: #ecfccb; stroke: #4ade80; stroke-width: 1; }
    .agkg .note { font-size: 11px; fill: #666; }
  </style>
  <defs>
    <marker id="agkg-arrow" markerWidth="10" markerHeight="8" refX="9" refY="4" orient="auto" markerUnits="userSpaceOnUse">
      <polygon points="0 0,10 4,0 8" fill="#4ade80"/>
    </marker>
  </defs>
  <g class="agkg">
    <rect width="820" height="480" fill="#f3f4f6" rx="6"/>
    <text x="410" y="30" text-anchor="middle" font-size="17" font-weight="bold" fill="#0b2e1e">Knowledge graph — {project}_kg</text>

    <g class="card">
      <rect class="vtx" x="45" y="95" width="195" height="72" rx="14"/>
      <text class="vtitle" x="142" y="125" text-anchor="middle">Documents</text>
      <text class="vsub" x="142" y="145" text-anchor="middle">full text</text>
    </g>

    <g class="card">
      <rect class="vtx" x="312" y="95" width="195" height="72" rx="14"/>
      <text class="vtitle" x="409" y="125" text-anchor="middle">Chunks</text>
      <text class="vsub" x="409" y="145" text-anchor="middle">tokens, content</text>
    </g>

    <g class="card">
      <rect class="vtx" x="580" y="95" width="190" height="72" rx="14"/>
      <text class="vtitle" x="675" y="125" text-anchor="middle">Entities</text>
      <text class="vsub" x="675" y="145" text-anchor="middle">name, type, desc</text>
    </g>

    <g class="card">
      <rect class="vtx" x="580" y="320" width="190" height="72" rx="14"/>
      <text class="vtitle" x="675" y="350" text-anchor="middle">Communities</text>
      <text class="vsub" x="675" y="370" text-anchor="middle">report, level</text>
    </g>

    <path d="M 312 131 L 240 131" stroke="#4ade80" stroke-width="2" fill="none" marker-end="url(#agkg-arrow)"/>
    <rect class="ebadge" x="232" y="71" width="88" height="22" rx="11"/>
    <text class="elabel" x="276" y="86" text-anchor="middle">PART_OF</text>

    <path d="M 580 131 L 507 131" stroke="#4ade80" stroke-width="2" fill="none" marker-end="url(#agkg-arrow)"/>
    <rect class="ebadge" x="491" y="71" width="106" height="22" rx="11"/>
    <text class="elabel" x="544" y="86" text-anchor="middle">MENTIONED_IN</text>

    <path d="M 712 95 C 752 52, 808 128, 766 158" stroke="#4ade80" stroke-width="2" fill="none" marker-end="url(#agkg-arrow)"/>
    <rect class="ebadge" x="716" y="58" width="92" height="22" rx="11"/>
    <text class="elabel" x="762" y="73" text-anchor="middle">RELATED_TO</text>

    <path d="M 675 167 L 675 320" stroke="#4ade80" stroke-width="2" fill="none" marker-end="url(#agkg-arrow)"/>
    <rect class="ebadge" x="620" y="232" width="110" height="22" rx="11"/>
    <text class="elabel" x="675" y="247" text-anchor="middle">IN_COMMUNITY</text>

    <path d="M 630 392 C 600 445, 750 445, 720 394" stroke="#4ade80" stroke-width="2" fill="none" marker-end="url(#agkg-arrow)"/>
    <rect class="ebadge" x="615" y="430" width="120" height="22" rx="11"/>
    <text class="elabel" x="675" y="445" text-anchor="middle">SUB_COMMUNITY_OF</text>

    <text class="note" x="300" y="430" text-anchor="middle">All five relationships live in one edge</text>
    <text class="note" x="300" y="448" text-anchor="middle">collection, {project}_Relations — the</text>
    <text class="note" x="300" y="466" text-anchor="middle">relationship type is stored in a type field.</text>
  </g>
</svg>
