<svg xmlns="http://www.w3.org/2000/svg" width="32" height="44" fill="none" viewBox="0 0 32 44">
  <path fill="#007339" d="M31.136 4.097c-.524-1.128-1.26-2.074-2.132-2.733a7.234 7.234 0 0 0-1.147-.708A7.142 7.142 0 0 0 26.6.199c-1.05-.275-2.238-.265-3.436.03-1.605.393-3.146 1.27-4.227 2.402-1.55 1.615-3.294 3.124-4.98 4.584-.677.586-1.377 1.192-2.054 1.796-2.54 2.267-5.167 4.61-7.343 7.374-4.706 5.986-5.867 13.492-3.027 19.591.388.83.854 1.62 1.39 2.36 1.408 1.937 3.449 3.178 5.258 4.137C10.03 43.453 12.17 44 14.124 44a13.877 13.877 0 0 0 3.126-.394c6.466-1.584 11.503-7.21 13.145-14.684l.094-.422h-.009c.671-3.264.822-6.636.967-9.902l.004-.099c.041-.927.068-1.874.094-2.79.065-2.232.13-4.54.398-6.766.19-1.58-.105-3.348-.808-4.846h.001Zm-5.854 26.13c-1.163 5.347-4.778 10.103-10.264 11.412-.687.165-1.388.262-2.093.29-2.464.096-4.859-.925-6.859-2.286a9.183 9.183 0 0 1-2.237-2.131 11.35 11.35 0 0 1-1.091-1.837C.304 30.518 1.685 24.682 5.065 20.407c1.7-2.153 3.764-3.982 5.814-5.802 1.875-1.664 3.875-3.255 5.617-5.056.831-.861 2.008-1.522 3.244-1.82.873-.207 1.778-.234 2.613-.013.329.09.65.207.96.35.304.154.595.334.869.54.69.523 1.24 1.254 1.628 2.075.547 1.164.776 2.512.635 3.705-.294 2.507-.26 5.084-.362 7.613-.111 2.758-.226 5.538-.81 8.23h.008l.001-.002Z"/>
  <path fill="#B9FF38" d="M26.445 14.383c.141-1.192-.088-2.541-.635-3.705-.387-.822-.937-1.552-1.628-2.075a5.742 5.742 0 0 0-.87-.54 6.18 6.18 0 0 0-.959-.35c-.835-.22-1.74-.194-2.613.013-1.236.298-2.413.959-3.244 1.82-1.744 1.803-3.742 3.394-5.617 5.057-2.05 1.82-4.113 3.648-5.814 5.8-3.38 4.276-4.76 10.112-2.327 15.27a11.4 11.4 0 0 0 1.09 1.836 9.155 9.155 0 0 0 2.239 2.13c1.998 1.362 4.395 2.383 6.858 2.287a10.605 10.605 0 0 0 2.093-.29c5.486-1.31 9.1-6.065 10.264-11.412h-.008c.584-2.693.7-5.472.81-8.23.103-2.53.069-5.106.363-7.613l-.002.002Z"/>
  <path fill="#151D25" d="M17.81 20.803c-1.497-.982-3.51-1.038-5.67-.156-2.018.824-3.841 2.343-5.003 4.166-2.364 3.71-1.718 8.412 1.44 10.482a5.97 5.97 0 0 0 2.481.924 6.742 6.742 0 0 0 2.836-.244c1.885-.564 3.552-1.862 4.693-3.653 1.446-2.264 2.037-5.348 1.506-7.857-.348-1.644-1.139-2.91-2.284-3.66l.001-.002Z"/>
  <path fill="#000" d="M17.255 21.567c-1.308-.859-3.066-.907-4.952-.137-1.763.72-3.355 2.046-4.37 3.638-2.065 3.241-1.5 7.347 1.257 9.155a5.214 5.214 0 0 0 2.168.808 5.887 5.887 0 0 0 2.477-.214c1.646-.492 3.102-1.626 4.099-3.19 1.262-1.977 1.779-4.671 1.315-6.862-.304-1.437-.995-2.541-1.995-3.197v-.002Z"/>
</svg>
