<svg xmlns="http://www.w3.org/2000/svg" width="32" height="44" fill="none" viewBox="0 0 32 44">
  <path fill="#F4FAF4" stroke="#044926" stroke-width=".5" d="M23.225.47c1.162-.284 2.308-.29 3.312-.028a7.12 7.12 0 0 1 1.213.44c.283.139.56.303.833.49l.27.193c.822.622 1.523 1.515 2.03 2.588l.025.051c.642 1.366.934 2.964.817 4.421l-.03.29c-.202 1.678-.29 3.403-.348 5.102l-.051 1.686a177.45 177.45 0 0 1-.095 2.786v.001l-.004.098c-.145 3.27-.296 6.621-.962 9.862l-.061.301h.004l-.027.118c-1.625 7.398-6.602 12.938-12.96 14.495a13.63 13.63 0 0 1-3.067.387c-1.911 0-4.012-.536-5.826-1.498-1.804-.957-3.8-2.175-5.172-4.063-.462-.635-.87-1.31-1.22-2.014l-.146-.305c-2.794-6-1.66-13.407 2.996-19.33 2.16-2.744 4.77-5.073 7.312-7.343l.001.001c.676-.602 1.375-1.208 2.052-1.794 1.685-1.459 3.437-2.975 4.996-4.6C20.163 1.707 21.663.854 23.225.47Zm-.808 7.005c-.772-.204-1.594-.207-2.394-.06l-.34.07h-.001c-1.2.29-2.347.909-3.2 1.724l-.166.166c-1.733 1.793-3.714 3.367-5.603 5.044-2.047 1.817-4.128 3.66-5.845 5.833-3.316 4.195-4.75 9.897-2.578 15.034l.222.496c.31.66.688 1.29 1.114 1.876l.001.001a9.434 9.434 0 0 0 2.298 2.19c2.024 1.379 4.472 2.428 7.01 2.33.54-.022 1.08-.082 1.612-.183l.53-.114c5.602-1.337 9.271-6.188 10.45-11.603l-.01-.004c.59-2.715.704-5.514.815-8.266.103-2.548.069-5.099.361-7.593.147-1.243-.091-2.638-.656-3.84v-.002c-.403-.85-.977-1.615-1.704-2.167h-.001l-.218-.157a6.001 6.001 0 0 0-.69-.407l-.007-.004a6.397 6.397 0 0 0-.998-.364h-.002Z"/>
  <path fill="#F4FAF4" d="M26.445 14.383c.141-1.192-.088-2.541-.635-3.705-.387-.822-.937-1.552-1.628-2.075a5.742 5.742 0 0 0-.87-.54 6.18 6.18 0 0 0-.959-.35c-.835-.22-1.74-.194-2.613.013-1.236.298-2.413.959-3.244 1.82-1.744 1.803-3.742 3.394-5.617 5.057-2.05 1.82-4.113 3.648-5.814 5.8-3.38 4.276-4.76 10.112-2.327 15.27a11.4 11.4 0 0 0 1.09 1.836 9.155 9.155 0 0 0 2.239 2.13c1.998 1.362 4.395 2.383 6.858 2.287a10.605 10.605 0 0 0 2.093-.29c5.486-1.31 9.1-6.065 10.264-11.412h-.008c.584-2.693.7-5.472.81-8.23.103-2.53.069-5.106.363-7.613l-.002.002Z"/>
  <path fill="#151D25" d="M17.81 20.803c-1.497-.982-3.51-1.038-5.67-.156-2.018.824-3.841 2.343-5.003 4.166-2.364 3.71-1.718 8.412 1.44 10.482a5.97 5.97 0 0 0 2.481.924 6.742 6.742 0 0 0 2.836-.244c1.885-.564 3.552-1.862 4.693-3.653 1.446-2.264 2.037-5.348 1.506-7.857-.348-1.644-1.139-2.91-2.284-3.66l.001-.002Z"/>
  <path fill="#000" d="M17.255 21.567c-1.308-.859-3.066-.907-4.952-.137-1.763.72-3.355 2.046-4.37 3.638-2.065 3.241-1.5 7.347 1.257 9.155a5.214 5.214 0 0 0 2.168.808 5.887 5.887 0 0 0 2.477-.214c1.646-.492 3.102-1.626 4.099-3.19 1.262-1.977 1.779-4.671 1.315-6.862-.304-1.437-.995-2.541-1.995-3.197v-.002Z"/>
</svg>
