<svg viewBox="0 0 700 400" xmlns="http://www.w3.org/2000/svg" style="display:block;width:100%;max-width:700px;margin:0 auto">
  <g stroke="#6b7280" stroke-width="1.2" fill="none">
    <line x1="200" y1="40" x2="313" y2="105"/>
    <line x1="313" y1="105" x2="313" y2="235"/>
    <line x1="313" y1="235" x2="200" y2="300"/>
    <line x1="200" y1="300" x2="87" y2="235"/>
    <line x1="87" y1="235" x2="87" y2="105"/>
    <line x1="87" y1="105" x2="200" y2="40"/>
    <line x1="200" y1="170" x2="200" y2="40"/>
    <line x1="200" y1="170" x2="313" y2="105"/>
    <line x1="200" y1="170" x2="313" y2="235"/>
    <line x1="200" y1="170" x2="200" y2="300"/>
    <line x1="200" y1="170" x2="87" y2="235"/>
    <line x1="200" y1="170" x2="87" y2="105"/>
    <line x1="313" y1="105" x2="440" y2="170"/>
    <line x1="313" y1="235" x2="440" y2="170"/>
    <line x1="440" y1="170" x2="545" y2="170"/>
    <line x1="545" y1="170" x2="645" y2="170"/>
  </g>

  <g>
    <circle cx="200" cy="40" r="22" fill="#fde68a"/>
    <circle cx="200" cy="300" r="22" fill="#fde68a"/>
    <circle cx="87" cy="235" r="22" fill="#fde68a"/>
    <circle cx="87" cy="105" r="22" fill="#fde68a"/>
    <circle cx="645" cy="170" r="22" fill="#fde68a"/>
    <circle cx="313" cy="105" r="22" fill="#d1fae5"/>
    <circle cx="313" cy="235" r="22" fill="#d1fae5"/>
    <circle cx="545" cy="170" r="22" fill="#d1fae5"/>
    <circle cx="200" cy="170" r="22" fill="#3b82f6"/>
    <circle cx="440" cy="170" r="22" fill="#c084fc"/>
  </g>

  <g font-family="sans-serif" font-size="20" font-weight="bold" fill="#374151">
    <circle cx="70" cy="370" r="12" fill="#3b82f6"/>
    <text x="92" y="378">Degree</text>

    <circle cx="240" cy="370" r="12" fill="#d1fae5"/>
    <text x="262" y="378">Closeness</text>

    <circle cx="460" cy="370" r="12" fill="#c084fc"/>
    <text x="482" y="378">Betweeness</text>
  </g>
</svg>
