<svg viewBox="0 0 900 600"
     xmlns="http://www.w3.org/2000/svg"
     xmlns:xlink="http://www.w3.org/1999/xlink"
     style="display:block;width:100%;max-width:900px;margin:0 auto">
  <style>
    .arch .card-link { cursor: pointer; }
    .arch .card-link .node { transition: fill 120ms, stroke 120ms; }
    .arch .card-link:hover .node    { fill: #dcfce7; stroke: #16a34a; }
    .arch .card-link:hover .node-db { fill: #bbf7d0; stroke: #16a34a; }
    .arch .card-link:hover .node-ai { fill: #f3e8ff; stroke: #7c3aed; }
    .arch .card-link:hover .node-byoc { fill: #fed7aa; stroke: #ea580c; }
    .arch .card-link:hover .node-op { fill: #d1fae5; stroke: #16a34a; }
  </style>
  <defs>
    <marker id="arrow-g" markerWidth="10" markerHeight="8" refX="10" refY="4" orient="auto" markerUnits="userSpaceOnUse">
      <polygon points="0 0,10 4,0 8" fill="#6b7280"/>
    </marker>
    <marker id="arrow-g-start" markerWidth="10" markerHeight="8" refX="0" refY="4" orient="auto" markerUnits="userSpaceOnUse">
      <polygon points="10 0,0 4,10 8" fill="#6b7280"/>
    </marker>
  </defs>

  <g class="arch">
    <rect width="900" height="600" fill="#f8fafc" rx="6"/>

    <g>
      <circle cx="450" cy="40" r="18" fill="#e5e7eb" stroke="#9ca3af" stroke-width="1.5"/>
      <circle cx="450" cy="32" r="6" fill="#6b7280"/>
      <path d="M 436 52 Q 450 40 464 52 L 464 58 L 436 58 Z" fill="#6b7280"/>
      <text x="450" y="82" text-anchor="middle" font-family="sans-serif" font-size="11" font-weight="bold" fill="#374151">USER</text>
    </g>

    <rect x="20" y="100" width="860" height="490" rx="12" fill="#f0f9ff" stroke="#3b82f6" stroke-width="2" stroke-dasharray="6 4"/>
    <g transform="translate(35 115)">
      <polygon points="10,2 18,6 18,14 10,18 2,14 2,6" fill="none" stroke="#3b82f6" stroke-width="1.5"/>
      <text x="26" y="14" font-family="sans-serif" font-size="11" font-weight="bold" fill="#1e40af">KUBERNETES CLUSTER (k8s)</text>
    </g>

    <path d="M 450 90 L 450 145" stroke="#6b7280" stroke-width="1.8" fill="none" marker-end="url(#arrow-g)"/>
    <text x="458" y="125" font-family="sans-serif" font-size="10" fill="#6b7280">HTTP/HTTPS (ingress)</text>

    <a class="card-link" xlink:href="https://www.envoyproxy.io/" target="_blank">
      <rect x="340" y="145" width="220" height="72" rx="10" class="node" fill="#ecfccb" stroke="#65a30d" stroke-width="2"/>
      <circle cx="370" cy="165" r="7" fill="#84cc16"/>
      <polygon points="366,162 374,162 374,168 370,172 366,168" fill="#ffffff"/>
      <text x="450" y="174" text-anchor="middle" font-family="sans-serif" font-size="13" font-weight="bold" fill="#1a2e05">Envoy</text>
      <text x="450" y="192" text-anchor="middle" font-family="sans-serif" font-size="10" fill="#3f6212">(API Gateway &amp;</text>
      <text x="450" y="206" text-anchor="middle" font-family="sans-serif" font-size="10" fill="#3f6212">HTTP Frontend)</text>
    </a>

    <rect x="620" y="135" width="250" height="100" rx="10" fill="#fff7ed" stroke="#fb923c" stroke-width="1.5" stroke-dasharray="4 3"/>
    <text x="745" y="152" text-anchor="middle" font-family="sans-serif" font-size="10" font-weight="bold" fill="#9a3412">USER-DEFINED SERVICES (BYOC)</text>

    <a class="card-link" xlink:href="/platform-suite/container-manager/">
      <rect x="635" y="162" width="110" height="65" rx="8" class="node-byoc" fill="#ffedd5" stroke="#fb923c" stroke-width="1.5"/>
      <text x="690" y="184" text-anchor="middle" font-family="sans-serif" font-size="11" font-weight="bold" fill="#9a3412">BYOC</text>
      <text x="690" y="198" text-anchor="middle" font-family="sans-serif" font-size="11" font-weight="bold" fill="#9a3412">Service A</text>
      <text x="690" y="216" text-anchor="middle" font-family="sans-serif" font-size="8" fill="#c2410c">Bring Your Own Code</text>
    </a>
    <a class="card-link" xlink:href="/platform-suite/container-manager/">
      <rect x="750" y="162" width="110" height="65" rx="8" class="node-byoc" fill="#ffedd5" stroke="#fb923c" stroke-width="1.5"/>
      <text x="805" y="184" text-anchor="middle" font-family="sans-serif" font-size="11" font-weight="bold" fill="#9a3412">BYOC</text>
      <text x="805" y="198" text-anchor="middle" font-family="sans-serif" font-size="11" font-weight="bold" fill="#9a3412">Service B</text>
      <text x="805" y="216" text-anchor="middle" font-family="sans-serif" font-size="8" fill="#c2410c">Bring Your Own Code</text>
    </a>

    <path d="M 560 181 L 620 181" stroke="#6b7280" stroke-width="1.6" fill="none" marker-end="url(#arrow-g)"/>
    <text x="585" y="176" text-anchor="middle" font-family="sans-serif" font-size="9" fill="#6b7280">/byoc-a/</text>
    <path d="M 590 181 L 590 240 L 720 240 L 720 255" stroke="#6b7280" stroke-width="1.5" fill="none" marker-end="url(#arrow-g)"/>

    <rect x="180" y="255" width="460" height="320" rx="10" fill="#ffffff" stroke="#9ca3af" stroke-width="1.5"/>
    <text x="410" y="275" text-anchor="middle" font-family="sans-serif" font-size="11" font-weight="bold" fill="#374151">ARANGODB PLATFORM SERVICES</text>

    <rect x="195" y="288" width="430" height="95" rx="8" fill="#f9fafb" stroke="#d1d5db" stroke-width="1" stroke-dasharray="3 3"/>
    <text x="410" y="305" text-anchor="middle" font-family="sans-serif" font-size="10" font-weight="bold" fill="#4b5563">PLATFORM ENABLERS</text>

    <a class="card-link" xlink:href="/platform-suite/file-manager/">
      <rect x="215" y="315" width="190" height="55" rx="8" class="node" fill="#ffffff" stroke="#86efac" stroke-width="1.5"/>
      <rect x="230" y="329" width="20" height="14" rx="2" fill="#fde68a" stroke="#d97706" stroke-width="1"/>
      <rect x="234" y="326" width="10" height="4" fill="#fde68a" stroke="#d97706" stroke-width="1"/>
      <text x="325" y="340" text-anchor="middle" font-family="sans-serif" font-size="12" font-weight="bold" fill="#0b2e1e">File Manager</text>
      <text x="325" y="357" text-anchor="middle" font-family="sans-serif" font-size="9" fill="#4b5563">(Object Storage)</text>
    </a>
    <a class="card-link" xlink:href="/platform-suite/secrets-manager/">
      <rect x="415" y="315" width="195" height="55" rx="8" class="node" fill="#ffffff" stroke="#86efac" stroke-width="1.5"/>
      <rect x="430" y="329" width="18" height="14" rx="1" fill="#9ca3af"/>
      <path d="M 433 329 L 433 325 A 6 6 0 0 1 445 325 L 445 329" stroke="#9ca3af" stroke-width="1.5" fill="none"/>
      <text x="528" y="340" text-anchor="middle" font-family="sans-serif" font-size="12" font-weight="bold" fill="#0b2e1e">Secret Manager</text>
      <text x="528" y="357" text-anchor="middle" font-family="sans-serif" font-size="9" fill="#4b5563">(Secrets)</text>
    </a>

    <a class="card-link" xlink:href="/arangodb/">
      <rect x="200" y="405" width="420" height="155" rx="10" class="node-db" fill="#ecfccb" stroke="#65a30d" stroke-width="2"/>
      <text x="410" y="428" text-anchor="middle" font-family="sans-serif" font-size="13" font-weight="bold" fill="#1a2e05">ARANGODB</text>
      <text x="410" y="444" text-anchor="middle" font-family="sans-serif" font-size="9" fill="#3f6212">(Distributed Multi-Model Database)</text>
    </a>

    <a class="card-link" xlink:href="/arangodb/4.0/deploy/cluster/">
      <rect x="215" y="455" width="120" height="90" rx="8" class="node" fill="#ffffff" stroke="#86efac" stroke-width="1.5"/>
      <circle cx="275" cy="483" r="10" fill="#bbf7d0" stroke="#22c55e" stroke-width="1.2"/>
      <text x="275" y="511" text-anchor="middle" font-family="sans-serif" font-size="11" font-weight="bold" fill="#0b2e1e">Coordinator</text>
      <text x="275" y="527" text-anchor="middle" font-family="sans-serif" font-size="11" font-weight="bold" fill="#0b2e1e">Nodes</text>
    </a>
    <a class="card-link" xlink:href="/arangodb/4.0/deploy/cluster/">
      <rect x="345" y="455" width="120" height="90" rx="8" class="node" fill="#ffffff" stroke="#86efac" stroke-width="1.5"/>
      <circle cx="405" cy="483" r="10" fill="#bbf7d0" stroke="#22c55e" stroke-width="1.2"/>
      <text x="405" y="511" text-anchor="middle" font-family="sans-serif" font-size="11" font-weight="bold" fill="#0b2e1e">DB Server</text>
      <text x="405" y="527" text-anchor="middle" font-family="sans-serif" font-size="11" font-weight="bold" fill="#0b2e1e">Nodes</text>
    </a>
    <a class="card-link" xlink:href="/arangodb/4.0/deploy/cluster/">
      <rect x="475" y="455" width="120" height="90" rx="8" class="node" fill="#ffffff" stroke="#86efac" stroke-width="1.5"/>
      <circle cx="535" cy="483" r="10" fill="#bbf7d0" stroke="#22c55e" stroke-width="1.2"/>
      <text x="535" y="511" text-anchor="middle" font-family="sans-serif" font-size="11" font-weight="bold" fill="#0b2e1e">Agent</text>
      <text x="535" y="527" text-anchor="middle" font-family="sans-serif" font-size="11" font-weight="bold" fill="#0b2e1e">Nodes</text>
    </a>

    <rect x="660" y="255" width="210" height="320" rx="10" fill="#faf5ff" stroke="#a78bfa" stroke-width="1.5" stroke-dasharray="4 3"/>
    <text x="765" y="275" text-anchor="middle" font-family="sans-serif" font-size="11" font-weight="bold" fill="#5b21b6">AI TOOLS &amp; GRAPH ANALYTICS</text>

    <a class="card-link" xlink:href="/agentic-ai-suite/graph-analytics/">
      <rect x="675" y="290" width="180" height="70" rx="8" class="node-ai" fill="#ffffff" stroke="#a78bfa" stroke-width="1.5"/>
      <text x="765" y="320" text-anchor="middle" font-family="sans-serif" font-size="12" font-weight="bold" fill="#3b0764">Graph Analytics</text>
      <text x="765" y="338" text-anchor="middle" font-family="sans-serif" font-size="12" font-weight="bold" fill="#3b0764">Engine</text>
    </a>
    <a class="card-link" xlink:href="/agentic-ai-suite/importer/">
      <rect x="675" y="380" width="180" height="60" rx="8" class="node-ai" fill="#ffffff" stroke="#a78bfa" stroke-width="1.5"/>
      <text x="765" y="405" text-anchor="middle" font-family="sans-serif" font-size="12" font-weight="bold" fill="#3b0764">AutoGraph</text>
      <text x="765" y="421" text-anchor="middle" font-family="sans-serif" font-size="12" font-weight="bold" fill="#3b0764">Loader</text>
    </a>
    <a class="card-link" xlink:href="/agentic-ai-suite/retriever/">
      <rect x="675" y="460" width="180" height="60" rx="8" class="node-ai" fill="#ffffff" stroke="#a78bfa" stroke-width="1.5"/>
      <text x="765" y="485" text-anchor="middle" font-family="sans-serif" font-size="12" font-weight="bold" fill="#3b0764">AutoGraph</text>
      <text x="765" y="501" text-anchor="middle" font-family="sans-serif" font-size="12" font-weight="bold" fill="#3b0764">Retriever</text>
    </a>

    <a class="card-link" xlink:href="https://arangodb.github.io/kube-arangodb/" target="_blank">
      <rect x="30" y="420" width="130" height="110" rx="10" class="node-op" fill="#ffffff" stroke="#86efac" stroke-width="1.5"/>
      <g transform="translate(80 432) scale(0.55)">
        <path fill="#007339" d="M31.136 4.097c-.524-1.128-1.26-2.074-2.132-2.733a7.234 7.234 0 0 0-1.147-.708A7.142 7.142 0 0 0 26.6.199c-1.05-.275-2.238-.265-3.436.03-1.605.393-3.146 1.27-4.227 2.402-1.55 1.615-3.294 3.124-4.98 4.584-.677.586-1.377 1.192-2.054 1.796-2.54 2.267-5.167 4.61-7.343 7.374-4.706 5.986-5.867 13.492-3.027 19.591.388.83.854 1.62 1.39 2.36 1.408 1.937 3.449 3.178 5.258 4.137C10.03 43.453 12.17 44 14.124 44a13.877 13.877 0 0 0 3.126-.394c6.466-1.584 11.503-7.21 13.145-14.684l.094-.422h-.009c.671-3.264.822-6.636.967-9.902l.004-.099c.041-.927.068-1.874.094-2.79.065-2.232.13-4.54.398-6.766.19-1.58-.105-3.348-.808-4.846h.001Z"/>
        <path fill="#B9FF38" d="M26.445 14.383c.141-1.192-.088-2.541-.635-3.705-.387-.822-.937-1.552-1.628-2.075a5.742 5.742 0 0 0-.87-.54 6.18 6.18 0 0 0-.959-.35c-.835-.22-1.74-.194-2.613.013-1.236.298-2.413.959-3.244 1.82-1.744 1.803-3.742 3.394-5.617 5.057-2.05 1.82-4.113 3.648-5.814 5.8-3.38 4.276-4.76 10.112-2.327 15.27a11.4 11.4 0 0 0 1.09 1.836 9.155 9.155 0 0 0 2.239 2.13c1.998 1.362 4.395 2.383 6.858 2.287a10.605 10.605 0 0 0 2.093-.29c5.486-1.31 9.1-6.065 10.264-11.412h-.008c.584-2.693.7-5.472.81-8.23.103-2.53.069-5.106.363-7.613l-.002.002Z"/>
        <path fill="#000" d="M17.255 21.567c-1.308-.859-3.066-.907-4.952-.137-1.763.72-3.355 2.046-4.37 3.638-2.065 3.241-1.5 7.347 1.257 9.155a5.214 5.214 0 0 0 2.168.808 5.887 5.887 0 0 0 2.477-.214c1.646-.492 3.102-1.626 4.099-3.19 1.262-1.977 1.779-4.671 1.315-6.862-.304-1.437-.995-2.541-1.995-3.197v-.002Z"/>
      </g>
      <text x="95" y="495" text-anchor="middle" font-family="sans-serif" font-size="11" font-weight="bold" fill="#0b2e1e">ArangoDB</text>
      <text x="95" y="510" text-anchor="middle" font-family="sans-serif" font-size="11" font-weight="bold" fill="#0b2e1e">Operator</text>
    </a>

    <path d="M 160 470 L 200 470" stroke="#6b7280" stroke-width="1.6" fill="none" marker-end="url(#arrow-g)"/>
    <text x="180" y="464" text-anchor="middle" font-family="sans-serif" font-size="9" fill="#6b7280">Manages</text>

    <path d="M 95 420 L 95 181 L 340 181" stroke="#6b7280" stroke-width="1.6" fill="none" marker-end="url(#arrow-g)"/>

    <path d="M 95 525 L 95 555 L 260 555 L 260 545" stroke="#6b7280" stroke-width="1.4" fill="none" marker-end="url(#arrow-g)" stroke-dasharray="4 3"/>
    <text x="150" y="551" font-family="sans-serif" font-size="9" fill="#6b7280">Configuration</text>

    <path d="M 340 217 L 340 240 L 310 240 L 310 313" stroke="#6b7280" stroke-width="1.5" fill="none" marker-end="url(#arrow-g)"/>
    <path d="M 512 217 L 512 313" stroke="#6b7280" stroke-width="1.5" fill="none" marker-end="url(#arrow-g)"/>

    <path d="M 450 217 L 450 250 L 540 250 L 540 285 L 410 285 L 410 405" stroke="#6b7280" stroke-width="1.5" fill="none" marker-end="url(#arrow-g)"/>

    <path d="M 795 255 L 795 229" stroke="#6b7280" stroke-width="1.5" fill="none" marker-end="url(#arrow-g)"/>
    <path d="M 815 227 L 815 253" stroke="#6b7280" stroke-width="1.5" fill="none" marker-end="url(#arrow-g)"/>

<path d="M 675 325 L 620 395" stroke="#6b7280" stroke-width="1.5" fill="none" marker-end="url(#arrow-g)" marker-start="url(#arrow-g-start)"/>
    <text x="628" y="358" font-family="sans-serif" font-size="9" fill="#6b7280">Query/Data access</text>

    <path d="M 675 405 L 620 440" stroke="#6b7280" stroke-width="1.5" fill="none" marker-end="url(#arrow-g)" marker-start="url(#arrow-g-start)"/>
    <text x="628" y="428" font-family="sans-serif" font-size="9" fill="#6b7280">Query/Data access</text>

    <path d="M 675 485 L 620 490" stroke="#6b7280" stroke-width="1.5" fill="none" marker-end="url(#arrow-g)" marker-start="url(#arrow-g-start)"/>
    <text x="628" y="479" font-family="sans-serif" font-size="9" fill="#6b7280">Query/Data access</text>
  </g>
</svg>
